<svg width="600" height="400" viewBox="0 0 600 400" xmlns="http://www.w3.org/2000/svg">
  <!-- Background gradient -->
  <defs>
    <linearGradient id="bg" x1="0%" y1="0%" x2="100%" y2="100%">
      <stop offset="0%" style="stop-color:#f59e0b;stop-opacity:1" />
      <stop offset="100%" style="stop-color:#d97706;stop-opacity:1" />
    </linearGradient>
  </defs>
  <rect width="600" height="400" fill="url(#bg)"/>

  <!-- Trophy cup -->
  <path d="M 250 150 L 250 200 Q 250 220 270 230 L 330 230 Q 350 220 350 200 L 350 150 Z" fill="rgba(255,255,255,0.2)"/>
  <path d="M 250 150 L 250 200 Q 250 220 270 230 L 330 230 Q 350 220 350 200 L 350 150 Z" fill="rgba(255,215,0,0.6)"/>

  <!-- Trophy handles -->
  <path d="M 250 160 Q 220 160 220 180 Q 220 200 250 200" fill="none" stroke="rgba(255,215,0,0.6)" stroke-width="8"/>
  <path d="M 350 160 Q 380 160 380 180 Q 380 200 350 200" fill="none" stroke="rgba(255,215,0,0.6)" stroke-width="8"/>

  <!-- Trophy base -->
  <rect x="280" y="230" width="40" height="20" fill="rgba(255,215,0,0.6)"/>
  <rect x="260" y="250" width="80" height="15" fill="rgba(255,215,0,0.6)"/>

  <!-- AI brain inside trophy -->
  <circle cx="300" cy="190" r="25" fill="rgba(255,255,255,0.8)"/>
  <path d="M 290 180 Q 285 175 290 170 Q 295 165 305 165 Q 315 165 320 170 Q 325 175 320 180 Q 318 185 315 190 Q 318 195 320 200 Q 325 205 320 210 Q 315 215 305 215 Q 295 215 290 210 Q 285 205 290 200 Q 287 195 290 190 Q 287 185 290 180" fill="#f59e0b"/>

  <!-- Neural connections -->
  <circle cx="295" cy="185" r="2" fill="#fff"/>
  <circle cx="305" cy="185" r="2" fill="#fff"/>
  <circle cx="300" cy="195" r="2" fill="#fff"/>
  <line x1="295" y1="185" x2="305" y2="185" stroke="#fff" stroke-width="1"/>
  <line x1="295" y1="185" x2="300" y2="195" stroke="#fff" stroke-width="1"/>
  <line x1="305" y1="185" x2="300" y2="195" stroke="#fff" stroke-width="1"/>

  <!-- Competition podium -->
  <rect x="200" y="280" width="80" height="60" fill="rgba(255,255,255,0.2)"/>
  <rect x="260" y="260" width="80" height="80" fill="rgba(255,255,255,0.3)"/>
  <rect x="320" y="290" width="80" height="50" fill="rgba(255,255,255,0.15)"/>

  <!-- Medal stars on podium -->
  <polygon points="300,270 305,280 315,280 307,287 310,297 300,290 290,297 293,287 285,280 295,280" fill="#ffd700"/>
  <polygon points="240,290 243,295 248,295 244,298 246,303 240,299 234,303 236,298 232,295 237,295" fill="#c0c0c0"/>
  <polygon points="360,300 362,303 366,303 363,305 364,308 360,306 356,308 357,305 354,303 358,303" fill="#cd7f32"/>

  <!-- Competition banner -->
  <rect x="100" y="80" width="400" height="40" rx="20" fill="rgba(255,255,255,0.1)"/>
  <text x="300" y="105" text-anchor="middle" font-family="Arial, sans-serif" font-size="18" font-weight="bold" fill="white">全国人工智能应用创新大赛</text>

  <!-- Winner ribbon -->
  <polygon points="420,140 440,160 430,165 450,170 440,175 460,180 420,150" fill="rgba(255,0,0,0.6)"/>
  <text x="445" y="165" text-anchor="middle" font-family="Arial, sans-serif" font-size="12" font-weight="bold" fill="white">一等奖</text>

  <!-- Bottom text -->
  <text x="300" y="370" text-anchor="middle" font-family="Arial, sans-serif" font-size="16" font-weight="bold" fill="white">校级一等奖</text>
  <text x="300" y="390" text-anchor="middle" font-family="Arial, sans-serif" font-size="12" fill="rgba(255,255,255,0.8)">AI教育应用创新项目</text>
</svg>